<svg xmlns="http://www.w3.org/2000/svg" viewBox="0 0 1400 933" role="img" aria-labelledby="title desc">
  <title id="title">Confirmation Bias</title>
  <desc id="desc">A diagram showing matching evidence being favored while challenging evidence is set aside.</desc>
  <defs>
    <linearGradient id="bg" x1="0" x2="1" y1="0" y2="1">
      <stop offset="0" stop-color="#f8fbff"/>
      <stop offset="1" stop-color="#f4f2ec"/>
    </linearGradient>
    <filter id="shadow" x="-20%" y="-20%" width="140%" height="140%">
      <feDropShadow dx="0" dy="22" stdDeviation="20" flood-color="#17212b" flood-opacity="0.14"/>
    </filter>
    <marker id="arrow-blue" markerWidth="15" markerHeight="15" refX="11" refY="7.5" orient="auto">
      <path d="M1 1 L13 7.5 L1 14 Z" fill="#2e6678"/>
    </marker>
    <marker id="arrow-red" markerWidth="15" markerHeight="15" refX="11" refY="7.5" orient="auto">
      <path d="M1 1 L13 7.5 L1 14 Z" fill="#c95b4d"/>
    </marker>
  </defs>
  <rect width="1400" height="933" fill="url(#bg)"/>
  <rect x="160" y="126" width="1080" height="680" rx="18" fill="#ffffff" filter="url(#shadow)"/>
  <text x="220" y="204" fill="#2e6678" font-family="Inter, Arial, sans-serif" font-size="30" font-weight="700">CONFIRMATION BIAS</text>

  <rect x="252" y="300" width="286" height="230" rx="18" fill="#eef7f8" stroke="#aacbd2" stroke-width="4"/>
  <text x="395" y="358" text-anchor="middle" fill="#2e6678" font-family="Inter, Arial, sans-serif" font-size="28" font-weight="700">matching evidence</text>
  <circle cx="336" cy="430" r="24" fill="#2e6678"/>
  <circle cx="395" cy="430" r="24" fill="#2e6678"/>
  <circle cx="454" cy="430" r="24" fill="#2e6678"/>
  <text x="395" y="490" text-anchor="middle" fill="#68747c" font-family="Inter, Arial, sans-serif" font-size="24">feels convincing</text>

  <rect x="862" y="300" width="286" height="230" rx="18" fill="#fff3ef" stroke="#dfb6ad" stroke-width="4"/>
  <text x="1005" y="358" text-anchor="middle" fill="#b94f43" font-family="Inter, Arial, sans-serif" font-size="28" font-weight="700">challenging evidence</text>
  <circle cx="946" cy="430" r="24" fill="#d96554"/>
  <circle cx="1005" cy="430" r="24" fill="#d96554"/>
  <circle cx="1064" cy="430" r="24" fill="#d96554"/>
  <text x="1005" y="490" text-anchor="middle" fill="#68747c" font-family="Inter, Arial, sans-serif" font-size="24">gets ignored</text>

  <path d="M538 416 C 594 396, 634 388, 686 388" fill="none" stroke="#2e6678" stroke-width="12" stroke-linecap="round" marker-end="url(#arrow-blue)"/>
  <path d="M862 476 C 806 496, 766 504, 714 504" fill="none" stroke="#c95b4d" stroke-width="12" stroke-linecap="round" marker-end="url(#arrow-red)"/>

  <path d="M388 558 C 486 620, 558 658, 656 666" fill="none" stroke="#d1d9de" stroke-width="8" stroke-linecap="round"/>
  <path d="M1012 558 C 914 620, 842 658, 744 666" fill="none" stroke="#d1d9de" stroke-width="8" stroke-linecap="round"/>

  <rect x="566" y="604" width="268" height="96" rx="16" fill="#f7fafb" stroke="#d4dde2" stroke-width="4"/>
  <text x="700" y="642" text-anchor="middle" fill="#27313d" font-family="Inter, Arial, sans-serif" font-size="27" font-weight="700">preference filter</text>
  <text x="700" y="678" text-anchor="middle" fill="#68747c" font-family="Inter, Arial, sans-serif" font-size="22">agreement feels easier to trust</text>



  <text x="700" y="814" text-anchor="middle" fill="#5d6870" font-family="Inter, Arial, sans-serif" font-size="32">what agrees with me can feel truer than what challenges me</text>
</svg>
