<svg xmlns="http://www.w3.org/2000/svg" viewBox="0 0 1400 933" role="img" aria-labelledby="title desc">
  <title id="title">Boundary Conditions</title>
  <desc id="desc">A diagram showing fixed boundaries shaping the possible wave patterns inside a system.</desc>
  <defs>
    <linearGradient id="bg" x1="0" x2="1" y1="0" y2="1">
      <stop offset="0" stop-color="#f8fbff"/>
      <stop offset="1" stop-color="#f4f2ec"/>
    </linearGradient>
    <filter id="shadow" x="-20%" y="-20%" width="140%" height="140%">
      <feDropShadow dx="0" dy="22" stdDeviation="20" flood-color="#17212b" flood-opacity="0.14"/>
    </filter>
    <marker id="arrow" markerWidth="14" markerHeight="14" refX="10" refY="7" orient="auto">
      <path d="M1 1 L12 7 L1 13 Z" fill="#2e6678"/>
    </marker>
  </defs>
  <rect width="1400" height="933" fill="url(#bg)"/>
  <rect x="160" y="126" width="1080" height="680" rx="18" fill="#ffffff" filter="url(#shadow)"/>
  <text x="220" y="204" fill="#2e6678" font-family="Inter, Arial, sans-serif" font-size="30" font-weight="700">BOUNDARY CONDITIONS</text>

  <rect x="258" y="302" width="884" height="288" rx="18" fill="#f7fafb" stroke="#d4dde2" stroke-width="5"/>
  <rect x="258" y="302" width="34" height="288" rx="10" fill="#d96554"/>
  <rect x="1108" y="302" width="34" height="288" rx="10" fill="#d96554"/>

  <path d="M292 446 C 388 348, 484 348, 580 446 C 676 544, 772 544, 868 446 C 964 348, 1012 348, 1108 446" fill="none" stroke="#2e6678" stroke-width="14" stroke-linecap="round"/>
  <path d="M292 446 C 428 446, 444 374, 532 374 C 620 374, 636 518, 724 518 C 812 518, 828 374, 916 374 C 1004 374, 972 446, 1108 446" fill="none" stroke="#7aa7b1" stroke-width="8" stroke-linecap="round" opacity="0.78"/>

  <circle cx="292" cy="446" r="16" fill="#ffffff" stroke="#d96554" stroke-width="7"/>
  <circle cx="1108" cy="446" r="16" fill="#ffffff" stroke="#d96554" stroke-width="7"/>

  <rect x="278" y="638" width="294" height="92" rx="16" fill="#fff3ef" stroke="#dfb6ad" stroke-width="4"/>
  <text x="425" y="676" text-anchor="middle" fill="#b94f43" font-family="Inter, Arial, sans-serif" font-size="27" font-weight="700">fixed boundary</text>
  <text x="425" y="712" text-anchor="middle" fill="#68747c" font-family="Inter, Arial, sans-serif" font-size="22">the endpoint cannot move</text>

  <rect x="828" y="638" width="294" height="92" rx="16" fill="#eef7f8" stroke="#aacbd2" stroke-width="4"/>
  <text x="975" y="676" text-anchor="middle" fill="#2e6678" font-family="Inter, Arial, sans-serif" font-size="27" font-weight="700">allowed patterns</text>
  <text x="975" y="712" text-anchor="middle" fill="#68747c" font-family="Inter, Arial, sans-serif" font-size="22">solutions must fit the limits</text>

  <path d="M428 630 C 388 590, 350 540, 306 470" fill="none" stroke="#d96554" stroke-width="8" stroke-linecap="round" marker-end="url(#arrow)"/>
  <path d="M978 630 C 926 592, 876 548, 828 494" fill="none" stroke="#2e6678" stroke-width="8" stroke-linecap="round" marker-end="url(#arrow)"/>

  <line x1="318" y1="260" x2="1082" y2="260" stroke="#d1d9de" stroke-width="6" stroke-linecap="round"/>
  <text x="700" y="246" text-anchor="middle" fill="#68747c" font-family="Inter, Arial, sans-serif" font-size="25">same rules, different boundaries, different possible outcomes</text>

  <text x="700" y="790" text-anchor="middle" fill="#5d6870" font-family="Inter, Arial, sans-serif" font-size="32">constraints are part of the problem, not an afterthought</text>
</svg>
