<svg xmlns="http://www.w3.org/2000/svg" viewBox="0 0 1400 933" role="img" aria-labelledby="title desc">
  <title id="title">Entropy</title>
  <desc id="desc">A diagram showing particles moving from an ordered cluster into a dispersed state.</desc>
  <defs>
    <linearGradient id="bg" x1="0" x2="1" y1="0" y2="1">
      <stop offset="0" stop-color="#f8fbff"/>
      <stop offset="1" stop-color="#f4f0e8"/>
    </linearGradient>
    <filter id="shadow" x="-20%" y="-20%" width="140%" height="140%">
      <feDropShadow dx="0" dy="22" stdDeviation="20" flood-color="#1c2430" flood-opacity="0.14"/>
    </filter>
    <marker id="arrow" markerWidth="14" markerHeight="14" refX="10" refY="7" orient="auto">
      <path d="M1 1 L12 7 L1 13 Z" fill="#2f5f86"/>
    </marker>
  </defs>
  <rect width="1400" height="933" fill="url(#bg)"/>
  <rect x="160" y="126" width="1080" height="680" rx="18" fill="#ffffff" filter="url(#shadow)"/>
  <text x="220" y="204" fill="#2f5f86" font-family="Inter, Arial, sans-serif" font-size="30" font-weight="700">ENTROPY</text>

  <rect x="236" y="264" width="332" height="314" rx="16" fill="#edf4fb" stroke="#b7c9d8" stroke-width="4"/>
  <text x="402" y="624" text-anchor="middle" fill="#27313d" font-family="Inter, Arial, sans-serif" font-size="30" font-weight="700">few arrangements</text>
  <text x="402" y="664" text-anchor="middle" fill="#65717f" font-family="Inter, Arial, sans-serif" font-size="25">ordered state</text>

  <circle cx="358" cy="375" r="25" fill="#d94f45"/>
  <circle cx="411" cy="375" r="25" fill="#d94f45"/>
  <circle cx="464" cy="375" r="25" fill="#d94f45"/>
  <circle cx="358" cy="428" r="25" fill="#d94f45"/>
  <circle cx="411" cy="428" r="25" fill="#d94f45"/>
  <circle cx="464" cy="428" r="25" fill="#d94f45"/>
  <circle cx="358" cy="481" r="25" fill="#d94f45"/>
  <circle cx="411" cy="481" r="25" fill="#d94f45"/>
  <circle cx="464" cy="481" r="25" fill="#d94f45"/>

  <path d="M615 421 C 682 364, 754 364, 823 421" fill="none" stroke="#2f5f86" stroke-width="12" stroke-linecap="round" marker-end="url(#arrow)"/>
  <text x="720" y="342" text-anchor="middle" fill="#2f5f86" font-family="Inter, Arial, sans-serif" font-size="28" font-weight="700">more likely direction</text>

  <rect x="864" y="264" width="332" height="314" rx="16" fill="#fff5ed" stroke="#dbc5ae" stroke-width="4"/>
  <text x="1030" y="624" text-anchor="middle" fill="#27313d" font-family="Inter, Arial, sans-serif" font-size="30" font-weight="700">many arrangements</text>
  <text x="1030" y="664" text-anchor="middle" fill="#65717f" font-family="Inter, Arial, sans-serif" font-size="25">dispersed state</text>

  <circle cx="924" cy="326" r="20" fill="#d94f45"/>
  <circle cx="1018" cy="307" r="20" fill="#d94f45"/>
  <circle cx="1139" cy="360" r="20" fill="#d94f45"/>
  <circle cx="974" cy="411" r="20" fill="#d94f45"/>
  <circle cx="1088" cy="445" r="20" fill="#d94f45"/>
  <circle cx="1171" cy="505" r="20" fill="#d94f45"/>
  <circle cx="897" cy="510" r="20" fill="#d94f45"/>
  <circle cx="1048" cy="535" r="20" fill="#d94f45"/>
  <circle cx="1148" cy="292" r="20" fill="#d94f45"/>

  <path d="M280 752 C 430 720, 560 720, 696 752 C 832 784, 978 784, 1120 752" fill="none" stroke="#e2d5c4" stroke-width="14" stroke-linecap="round"/>
  <text x="700" y="780" text-anchor="middle" fill="#5a6470" font-family="Inter, Arial, sans-serif" font-size="32">order takes work because spread-out states have more possibilities</text>
</svg>
