<svg xmlns="http://www.w3.org/2000/svg" viewBox="0 0 1400 933" role="img" aria-labelledby="title desc">
  <title id="title">Resonance</title>
  <desc id="desc">A diagram showing small timed pushes creating a larger wave response.</desc>
  <defs>
    <linearGradient id="bg" x1="0" x2="1" y1="0" y2="1">
      <stop offset="0" stop-color="#fbfaf6"/>
      <stop offset="1" stop-color="#edf5f2"/>
    </linearGradient>
    <filter id="shadow" x="-20%" y="-20%" width="140%" height="140%">
      <feDropShadow dx="0" dy="22" stdDeviation="20" flood-color="#16211f" flood-opacity="0.15"/>
    </filter>
  </defs>
  <rect width="1400" height="933" fill="url(#bg)"/>
  <rect x="160" y="126" width="1080" height="680" rx="18" fill="#fff" filter="url(#shadow)"/>
  <text x="220" y="204" fill="#2f665b" font-family="Inter, Arial, sans-serif" font-size="30" font-weight="700">RESONANCE</text>

  <line x1="260" y1="618" x2="1140" y2="618" stroke="#16211f" stroke-width="5" stroke-linecap="round"/>
  <line x1="260" y1="618" x2="260" y2="270" stroke="#16211f" stroke-width="5" stroke-linecap="round"/>
  <text x="1035" y="674" fill="#5c6b66" font-family="Inter, Arial, sans-serif" font-size="28">time</text>
  <text x="206" y="312" fill="#5c6b66" font-family="Inter, Arial, sans-serif" font-size="28" transform="rotate(-90 206 312)">motion</text>

  <path d="M300 548 C 342 514, 382 514, 424 548 C 466 582, 506 582, 548 548 C 590 514, 630 514, 672 548 C 714 582, 754 582, 796 548 C 838 514, 878 514, 920 548" fill="none" stroke="#c59838" stroke-width="10" stroke-linecap="round"/>
  <text x="410" y="464" fill="#9a6b16" font-family="Inter, Arial, sans-serif" font-size="27" font-weight="700">small timed pushes</text>

  <path d="M420 618 C 478 548, 536 548, 594 618 C 652 688, 710 688, 768 618 C 826 548, 884 548, 942 618 C 1000 688, 1058 688, 1116 618" fill="none" stroke="#1f7a8c" stroke-width="18" stroke-linecap="round"/>
  <path d="M420 618 C 478 548, 536 548, 594 618 C 652 688, 710 688, 768 618 C 826 548, 884 548, 942 618 C 1000 688, 1058 688, 1116 618" fill="none" stroke="#8ec8b6" stroke-width="6" stroke-linecap="round"/>
  <text x="760" y="390" text-anchor="middle" fill="#1f7a8c" font-family="Inter, Arial, sans-serif" font-size="34" font-weight="700">larger response</text>

  <circle cx="504" cy="548" r="18" fill="#c75c4a"/>
  <circle cx="678" cy="688" r="18" fill="#c75c4a"/>
  <circle cx="855" cy="548" r="18" fill="#c75c4a"/>
  <path d="M504 488 V532" stroke="#c75c4a" stroke-width="10" stroke-linecap="round"/>
  <path d="M504 532 L480 506 M504 532 L528 506" stroke="#c75c4a" stroke-width="10" stroke-linecap="round" stroke-linejoin="round"/>
  <path d="M678 748 V704" stroke="#c75c4a" stroke-width="10" stroke-linecap="round"/>
  <path d="M678 704 L654 730 M678 704 L702 730" stroke="#c75c4a" stroke-width="10" stroke-linecap="round" stroke-linejoin="round"/>
  <path d="M855 488 V532" stroke="#c75c4a" stroke-width="10" stroke-linecap="round"/>
  <path d="M855 532 L831 506 M855 532 L879 506" stroke="#c75c4a" stroke-width="10" stroke-linecap="round" stroke-linejoin="round"/>

  <text x="260" y="772" fill="#5c6b66" font-family="Inter, Arial, sans-serif" font-size="32">matching the rhythm can amplify the effect</text>
</svg>
