<svg xmlns="http://www.w3.org/2000/svg" viewBox="0 0 1400 933" role="img" aria-labelledby="title desc">
  <title id="title">Local Optimum</title>
  <desc id="desc">A diagram showing a smaller nearby peak and a larger peak separated by a valley.</desc>
  <defs>
    <linearGradient id="bg" x1="0" x2="1" y1="0" y2="1">
      <stop offset="0" stop-color="#f8fbff"/>
      <stop offset="1" stop-color="#f3f6ee"/>
    </linearGradient>
    <filter id="shadow" x="-20%" y="-20%" width="140%" height="140%">
      <feDropShadow dx="0" dy="22" stdDeviation="20" flood-color="#17212b" flood-opacity="0.14"/>
    </filter>

<!--
    <marker id="arrow-blue" markerWidth="15" markerHeight="15" refX="11" refY="7.5" orient="auto">
      <path d="M1 1 L13 7.5 L1 14 Z" fill="#2e6678"/>
    </marker>
    <marker id="arrow-red" markerWidth="15" markerHeight="15" refX="11" refY="7.5" orient="auto">
      <path d="M1 1 L13 7.5 L1 14 Z" fill="#c95b4d"/>
    </marker>
-->
  </defs>
  <rect width="1400" height="933" fill="url(#bg)"/>
  <rect x="160" y="126" width="1080" height="680" rx="18" fill="#ffffff" filter="url(#shadow)"/>
  <text x="220" y="204" fill="#2e6678" font-family="Inter, Arial, sans-serif" font-size="30" font-weight="700">LOCAL OPTIMUM</text>


  <line x1="260" y1="674" x2="1138" y2="674" stroke="#d1d9de" stroke-width="6" stroke-linecap="round"/>
  <line x1="260" y1="252" x2="260" y2="674" stroke="#d1d9de" stroke-width="6" stroke-linecap="round"/>

  <text x="700" y="730" text-anchor="middle" fill="#68747c" font-family="Inter, Arial, sans-serif" font-size="25">possible choices</text>
  <text x="214" y="460" text-anchor="middle" transform="rotate(-90 214 460)" fill="#68747c" font-family="Inter, Arial, sans-serif" font-size="25">value</text>

  <path d="M298 634 C 390 574, 430 404, 526 388 C 612 374, 638 566, 716 586 C 816 612, 844 320, 1000 282 C 1064 266, 1102 298, 1130 332" fill="none" stroke="#2e6678" stroke-width="16" stroke-linecap="round"/>
  <path d="M298 634 C 390 574, 430 404, 526 388 C 612 374, 638 566, 716 586 C 816 612, 844 320, 1000 282 C 1064 266, 1102 298, 1130 332" fill="none" stroke="#87b9c2" stroke-width="5" stroke-linecap="round"/>

  <circle cx="526" cy="388" r="22" fill="#d96554"/>
  <circle cx="1000" cy="282" r="22" fill="#2e6678"/>

  <rect x="360" y="254" width="286" height="94" rx="16" fill="#fff3ef" stroke="#dfb6ad" stroke-width="4"/>
  <text x="503" y="292" text-anchor="middle" fill="#b94f43" font-family="Inter, Arial, sans-serif" font-size="27" font-weight="700">local optimum</text>
  <text x="503" y="328" text-anchor="middle" fill="#68747c" font-family="Inter, Arial, sans-serif" font-size="22">nearby moves look worse</text>


  <rect x="844" y="156" width="286" height="94" rx="16" fill="#eef7f8" stroke="#aacbd2" stroke-width="4"/>
  <text x="987" y="194" text-anchor="middle" fill="#2e6678" font-family="Inter, Arial, sans-serif" font-size="27" font-weight="700">better peak</text>
  <text x="987" y="230" text-anchor="middle" fill="#68747c" font-family="Inter, Arial, sans-serif" font-size="22">requires crossing a dip</text>

<!--
  <path d="M552 354 C 576 326, 606 310, 634 310" fill="none" stroke="#c95b4d" stroke-width="8" stroke-linecap="round" marker-end="url(#arrow-red)"/>
  <path d="M956 376 C 950 350, 958 330, 984 316" fill="none" stroke="#2e6678" stroke-width="8" stroke-linecap="round" marker-end="url(#arrow-blue)"/>
-->

  <path d="M560 602 C 632 650, 740 650, 820 592" fill="none" stroke="#d1d9de" stroke-width="9" stroke-linecap="round" stroke-dasharray="18 18"/>
  <text x="700" y="632" text-anchor="middle" fill="#68747c" font-family="Inter, Arial, sans-serif" font-size="24">temporary decline</text>

  <text x="700" y="790" text-anchor="middle" fill="#5d6870" font-family="Inter, Arial, sans-serif" font-size="32">small improvements can trap a system below a better solution</text>
</svg>
